<mxfile host="Electron" modified="2024-11-22T01:26:52.707Z" agent="Mozilla/5.0 (Windows NT 10.0; Win64; x64) AppleWebKit/537.36 (KHTML, like Gecko) draw.io/22.1.21 Chrome/120.0.6099.109 Electron/28.1.0 Safari/537.36" etag="zWyKWBo-PxR9Uiz-KdYh" version="22.1.21" type="device">
  <diagram name="Page-1" id="Sa3PjpMdJ_gF2D_CngqN">
    <mxGraphModel dx="1290" dy="621" grid="1" gridSize="10" guides="1" tooltips="1" connect="1" arrows="1" fold="1" page="1" pageScale="1" pageWidth="850" pageHeight="1100" math="0" shadow="0">
      <root>
        <mxCell id="0" />
        <mxCell id="1" parent="0" />
        <mxCell id="oByy2wQYsLUBBG1j0j8f-45" style="edgeStyle=orthogonalEdgeStyle;rounded=0;orthogonalLoop=1;jettySize=auto;html=1;exitX=0.5;exitY=0.5;exitDx=0;exitDy=0;exitPerimeter=0;entryX=1;entryY=0.5;entryDx=0;entryDy=0;" parent="1" source="oByy2wQYsLUBBG1j0j8f-1" target="oByy2wQYsLUBBG1j0j8f-2" edge="1">
          <mxGeometry relative="1" as="geometry" />
        </mxCell>
        <mxCell id="oByy2wQYsLUBBG1j0j8f-47" style="edgeStyle=orthogonalEdgeStyle;rounded=0;orthogonalLoop=1;jettySize=auto;html=1;" parent="1" source="oByy2wQYsLUBBG1j0j8f-1" target="oByy2wQYsLUBBG1j0j8f-4" edge="1">
          <mxGeometry relative="1" as="geometry" />
        </mxCell>
        <mxCell id="oByy2wQYsLUBBG1j0j8f-48" style="edgeStyle=orthogonalEdgeStyle;rounded=0;orthogonalLoop=1;jettySize=auto;html=1;entryX=1;entryY=0.5;entryDx=0;entryDy=0;" parent="1" source="oByy2wQYsLUBBG1j0j8f-1" target="oByy2wQYsLUBBG1j0j8f-5" edge="1">
          <mxGeometry relative="1" as="geometry" />
        </mxCell>
        <mxCell id="oByy2wQYsLUBBG1j0j8f-49" style="edgeStyle=orthogonalEdgeStyle;rounded=0;orthogonalLoop=1;jettySize=auto;html=1;entryX=1;entryY=0.5;entryDx=0;entryDy=0;" parent="1" source="oByy2wQYsLUBBG1j0j8f-1" target="oByy2wQYsLUBBG1j0j8f-6" edge="1">
          <mxGeometry relative="1" as="geometry" />
        </mxCell>
        <mxCell id="oByy2wQYsLUBBG1j0j8f-50" style="edgeStyle=orthogonalEdgeStyle;rounded=0;orthogonalLoop=1;jettySize=auto;html=1;entryX=1;entryY=0.5;entryDx=0;entryDy=0;" parent="1" source="oByy2wQYsLUBBG1j0j8f-1" target="oByy2wQYsLUBBG1j0j8f-7" edge="1">
          <mxGeometry relative="1" as="geometry" />
        </mxCell>
        <mxCell id="oByy2wQYsLUBBG1j0j8f-51" style="edgeStyle=orthogonalEdgeStyle;rounded=0;orthogonalLoop=1;jettySize=auto;html=1;entryX=1;entryY=0.5;entryDx=0;entryDy=0;" parent="1" source="oByy2wQYsLUBBG1j0j8f-1" target="oByy2wQYsLUBBG1j0j8f-17" edge="1">
          <mxGeometry relative="1" as="geometry" />
        </mxCell>
        <mxCell id="oByy2wQYsLUBBG1j0j8f-1" value="Users" style="shape=umlActor;verticalLabelPosition=bottom;verticalAlign=top;html=1;outlineConnect=0;" parent="1" vertex="1">
          <mxGeometry x="310" y="240" width="30" height="60" as="geometry" />
        </mxCell>
        <mxCell id="oByy2wQYsLUBBG1j0j8f-2" value="Trang chủ" style="ellipse;whiteSpace=wrap;html=1;fillColor=#FF9933;" parent="1" vertex="1">
          <mxGeometry x="70" y="110" width="100" height="50" as="geometry" />
        </mxCell>
        <mxCell id="oByy2wQYsLUBBG1j0j8f-3" value="cửa hàng" style="ellipse;whiteSpace=wrap;html=1;fillColor=#FF9933;" parent="1" vertex="1">
          <mxGeometry x="70" y="190" width="100" height="50" as="geometry" />
        </mxCell>
        <mxCell id="oByy2wQYsLUBBG1j0j8f-4" value="Giỏ hàng" style="ellipse;whiteSpace=wrap;html=1;fillColor=#FF9933;" parent="1" vertex="1">
          <mxGeometry x="70" y="260" width="100" height="50" as="geometry" />
        </mxCell>
        <mxCell id="oByy2wQYsLUBBG1j0j8f-5" value="Thanh toán" style="ellipse;whiteSpace=wrap;html=1;fillColor=#FF9933;" parent="1" vertex="1">
          <mxGeometry x="70" y="330" width="100" height="50" as="geometry" />
        </mxCell>
        <mxCell id="oByy2wQYsLUBBG1j0j8f-6" value="Liên hệ" style="ellipse;whiteSpace=wrap;html=1;fillColor=#FF9933;" parent="1" vertex="1">
          <mxGeometry x="70" y="390" width="100" height="50" as="geometry" />
        </mxCell>
        <mxCell id="oByy2wQYsLUBBG1j0j8f-7" value="Tra cứu đơn hàng" style="ellipse;whiteSpace=wrap;html=1;fillColor=#FF9933;" parent="1" vertex="1">
          <mxGeometry x="70" y="460" width="100" height="50" as="geometry" />
        </mxCell>
        <mxCell id="oByy2wQYsLUBBG1j0j8f-17" value="Giới thiệu" style="ellipse;whiteSpace=wrap;html=1;fillColor=#FF9933;" parent="1" vertex="1">
          <mxGeometry x="70" y="525" width="100" height="50" as="geometry" />
        </mxCell>
        <mxCell id="oByy2wQYsLUBBG1j0j8f-38" style="edgeStyle=orthogonalEdgeStyle;rounded=0;orthogonalLoop=1;jettySize=auto;html=1;entryX=0;entryY=0.5;entryDx=0;entryDy=0;" parent="1" source="oByy2wQYsLUBBG1j0j8f-19" target="oByy2wQYsLUBBG1j0j8f-31" edge="1">
          <mxGeometry relative="1" as="geometry" />
        </mxCell>
        <mxCell id="oByy2wQYsLUBBG1j0j8f-39" style="edgeStyle=orthogonalEdgeStyle;rounded=0;orthogonalLoop=1;jettySize=auto;html=1;entryX=0;entryY=0.5;entryDx=0;entryDy=0;" parent="1" source="oByy2wQYsLUBBG1j0j8f-19" target="oByy2wQYsLUBBG1j0j8f-32" edge="1">
          <mxGeometry relative="1" as="geometry" />
        </mxCell>
        <mxCell id="oByy2wQYsLUBBG1j0j8f-41" style="edgeStyle=orthogonalEdgeStyle;rounded=0;orthogonalLoop=1;jettySize=auto;html=1;entryX=0;entryY=0.5;entryDx=0;entryDy=0;" parent="1" source="oByy2wQYsLUBBG1j0j8f-19" target="oByy2wQYsLUBBG1j0j8f-34" edge="1">
          <mxGeometry relative="1" as="geometry" />
        </mxCell>
        <mxCell id="oByy2wQYsLUBBG1j0j8f-52" style="edgeStyle=orthogonalEdgeStyle;rounded=0;orthogonalLoop=1;jettySize=auto;html=1;" parent="1" source="oByy2wQYsLUBBG1j0j8f-19" target="oByy2wQYsLUBBG1j0j8f-1" edge="1">
          <mxGeometry relative="1" as="geometry" />
        </mxCell>
        <mxCell id="YBLEuxR8II908kxcndPx-4" style="edgeStyle=orthogonalEdgeStyle;rounded=0;orthogonalLoop=1;jettySize=auto;html=1;entryX=0;entryY=0.5;entryDx=0;entryDy=0;" edge="1" parent="1" source="oByy2wQYsLUBBG1j0j8f-19" target="oByy2wQYsLUBBG1j0j8f-33">
          <mxGeometry relative="1" as="geometry" />
        </mxCell>
        <mxCell id="YBLEuxR8II908kxcndPx-5" style="edgeStyle=orthogonalEdgeStyle;rounded=0;orthogonalLoop=1;jettySize=auto;html=1;entryX=0;entryY=0.5;entryDx=0;entryDy=0;" edge="1" parent="1" source="oByy2wQYsLUBBG1j0j8f-19" target="YBLEuxR8II908kxcndPx-1">
          <mxGeometry relative="1" as="geometry" />
        </mxCell>
        <mxCell id="YBLEuxR8II908kxcndPx-6" style="edgeStyle=orthogonalEdgeStyle;rounded=0;orthogonalLoop=1;jettySize=auto;html=1;entryX=0;entryY=0.5;entryDx=0;entryDy=0;" edge="1" parent="1" source="oByy2wQYsLUBBG1j0j8f-19" target="YBLEuxR8II908kxcndPx-3">
          <mxGeometry relative="1" as="geometry" />
        </mxCell>
        <mxCell id="YBLEuxR8II908kxcndPx-7" style="edgeStyle=orthogonalEdgeStyle;rounded=0;orthogonalLoop=1;jettySize=auto;html=1;entryX=0;entryY=0.5;entryDx=0;entryDy=0;" edge="1" parent="1" source="oByy2wQYsLUBBG1j0j8f-19" target="YBLEuxR8II908kxcndPx-2">
          <mxGeometry relative="1" as="geometry" />
        </mxCell>
        <mxCell id="oByy2wQYsLUBBG1j0j8f-19" value="Admin" style="shape=umlActor;verticalLabelPosition=bottom;verticalAlign=top;html=1;outlineConnect=0;" parent="1" vertex="1">
          <mxGeometry x="430" y="270" width="30" height="60" as="geometry" />
        </mxCell>
        <mxCell id="oByy2wQYsLUBBG1j0j8f-27" value="Login" style="ellipse;whiteSpace=wrap;html=1;fillColor=#FF9933;" parent="1" vertex="1">
          <mxGeometry x="410" y="10" width="100" height="50" as="geometry" />
        </mxCell>
        <mxCell id="oByy2wQYsLUBBG1j0j8f-29" value="Trang chủ Admin" style="ellipse;whiteSpace=wrap;html=1;fillColor=#FF9933;" parent="1" vertex="1">
          <mxGeometry x="560" y="40" width="100" height="50" as="geometry" />
        </mxCell>
        <mxCell id="oByy2wQYsLUBBG1j0j8f-30" style="edgeStyle=orthogonalEdgeStyle;rounded=0;orthogonalLoop=1;jettySize=auto;html=1;entryX=0.362;entryY=0.976;entryDx=0;entryDy=0;entryPerimeter=0;" parent="1" source="oByy2wQYsLUBBG1j0j8f-19" target="oByy2wQYsLUBBG1j0j8f-27" edge="1">
          <mxGeometry relative="1" as="geometry" />
        </mxCell>
        <mxCell id="oByy2wQYsLUBBG1j0j8f-31" value="quản lý sản phẩm" style="ellipse;whiteSpace=wrap;html=1;fillColor=#FF9933;" parent="1" vertex="1">
          <mxGeometry x="560" y="490" width="100" height="50" as="geometry" />
        </mxCell>
        <mxCell id="oByy2wQYsLUBBG1j0j8f-32" value="quản lý đặc trưng" style="ellipse;whiteSpace=wrap;html=1;fillColor=#FF9933;" parent="1" vertex="1">
          <mxGeometry x="560" y="330" width="100" height="50" as="geometry" />
        </mxCell>
        <mxCell id="oByy2wQYsLUBBG1j0j8f-33" value="quản lý danh mục sản phẩm" style="ellipse;whiteSpace=wrap;html=1;fillColor=#FF9933;" parent="1" vertex="1">
          <mxGeometry x="560" y="410" width="100" height="50" as="geometry" />
        </mxCell>
        <mxCell id="oByy2wQYsLUBBG1j0j8f-34" value="quản lý Địa chỉ Admin" style="ellipse;whiteSpace=wrap;html=1;fillColor=#FF9933;" parent="1" vertex="1">
          <mxGeometry x="560" y="580" width="100" height="50" as="geometry" />
        </mxCell>
        <mxCell id="oByy2wQYsLUBBG1j0j8f-35" value="Quản lý liên hệ" style="ellipse;whiteSpace=wrap;html=1;fillColor=#FF9933;" parent="1" vertex="1">
          <mxGeometry x="560" y="650" width="100" height="50" as="geometry" />
        </mxCell>
        <mxCell id="oByy2wQYsLUBBG1j0j8f-36" value="Quản lý đơn hàng" style="ellipse;whiteSpace=wrap;html=1;fillColor=#FF9933;" parent="1" vertex="1">
          <mxGeometry x="560" y="730" width="100" height="50" as="geometry" />
        </mxCell>
        <mxCell id="oByy2wQYsLUBBG1j0j8f-37" style="edgeStyle=orthogonalEdgeStyle;rounded=0;orthogonalLoop=1;jettySize=auto;html=1;entryX=-0.002;entryY=0.688;entryDx=0;entryDy=0;entryPerimeter=0;" parent="1" source="oByy2wQYsLUBBG1j0j8f-19" target="oByy2wQYsLUBBG1j0j8f-29" edge="1">
          <mxGeometry relative="1" as="geometry" />
        </mxCell>
        <mxCell id="oByy2wQYsLUBBG1j0j8f-42" style="edgeStyle=orthogonalEdgeStyle;rounded=0;orthogonalLoop=1;jettySize=auto;html=1;entryX=-0.01;entryY=0.672;entryDx=0;entryDy=0;entryPerimeter=0;" parent="1" source="oByy2wQYsLUBBG1j0j8f-19" target="oByy2wQYsLUBBG1j0j8f-35" edge="1">
          <mxGeometry relative="1" as="geometry" />
        </mxCell>
        <mxCell id="oByy2wQYsLUBBG1j0j8f-43" style="edgeStyle=orthogonalEdgeStyle;rounded=0;orthogonalLoop=1;jettySize=auto;html=1;entryX=-0.002;entryY=0.688;entryDx=0;entryDy=0;entryPerimeter=0;" parent="1" source="oByy2wQYsLUBBG1j0j8f-19" target="oByy2wQYsLUBBG1j0j8f-36" edge="1">
          <mxGeometry relative="1" as="geometry" />
        </mxCell>
        <mxCell id="oByy2wQYsLUBBG1j0j8f-46" style="edgeStyle=orthogonalEdgeStyle;rounded=0;orthogonalLoop=1;jettySize=auto;html=1;entryX=0.992;entryY=0.696;entryDx=0;entryDy=0;entryPerimeter=0;" parent="1" source="oByy2wQYsLUBBG1j0j8f-1" target="oByy2wQYsLUBBG1j0j8f-3" edge="1">
          <mxGeometry relative="1" as="geometry" />
        </mxCell>
        <mxCell id="YBLEuxR8II908kxcndPx-1" value="quản lý banners" style="ellipse;whiteSpace=wrap;html=1;fillColor=#FF9933;" vertex="1" parent="1">
          <mxGeometry x="560" y="260" width="100" height="50" as="geometry" />
        </mxCell>
        <mxCell id="YBLEuxR8II908kxcndPx-2" value="quản lý tên cửa hàng" style="ellipse;whiteSpace=wrap;html=1;fillColor=#FF9933;" vertex="1" parent="1">
          <mxGeometry x="560" y="120" width="100" height="50" as="geometry" />
        </mxCell>
        <mxCell id="YBLEuxR8II908kxcndPx-3" value="quản lý menu cửa hàng" style="ellipse;whiteSpace=wrap;html=1;fillColor=#FF9933;" vertex="1" parent="1">
          <mxGeometry x="560" y="190" width="100" height="50" as="geometry" />
        </mxCell>
      </root>
    </mxGraphModel>
  </diagram>
</mxfile>
